<?xml version="1.0" encoding="utf-8"?>
<!-- Generator: Adobe Illustrator 17.0.0, SVG Export Plug-In . SVG Version: 6.00 Build 0)  -->
<!DOCTYPE svg PUBLIC "-//W3C//DTD SVG 1.1//EN" "http://www.w3.org/Graphics/SVG/1.1/DTD/svg11.dtd">
<svg version="1.1" id="Layer_1" xmlns="http://www.w3.org/2000/svg" xmlns:xlink="http://www.w3.org/1999/xlink" x="0px" y="0px"
	 width="191.612px" height="225.918px" viewBox="0 0 191.612 225.918" enable-background="new 0 0 191.612 225.918"
	 xml:space="preserve">
<g>
	<g>
		<g>
			<path fill="#FFFFFF" stroke="#808285" stroke-width="4" stroke-miterlimit="10" d="M92.696,7.784
				c6.12,0,11.081,4.913,11.081,10.974v183.977c0,6.061-4.961,10.974-11.081,10.974H19.191c-6.12,0-11.081-4.913-11.081-10.974
				V18.758c0-6.061,4.961-10.974,11.081-10.974H92.696z"/>
			<path fill="#58595B" d="M97.701,34.564c1.01,0,1.829,0.819,1.829,1.829v147.97c0,1.01-0.819,1.829-1.829,1.829H15.11
				c-1.01,0-1.829-0.819-1.829-1.829V36.393c0-1.01,0.819-1.829,1.829-1.829H97.701z"/>
			<circle fill="#FFFFFF" stroke="#808285" stroke-width="4" stroke-miterlimit="10" cx="57.052" cy="199.304" r="8.865"/>
			<path fill="#808285" d="M64.009,22.152c0.744,0,1.348,0.603,1.348,1.348l0,0c0,0.744-0.603,1.348-1.348,1.348H49.633
				c-0.744,0-1.348-0.603-1.348-1.348l0,0c0-0.744,0.603-1.348,1.348-1.348H64.009z"/>
			<circle fill="#808285" cx="56.552" cy="15.503" r="2.156"/>
			<circle fill="#808285" cx="42.715" cy="23.41" r="1.797"/>
		</g>
		<g>
			<circle fill="#D07333" cx="68.002" cy="95.442" r="9.828"/>
			<circle fill="none" stroke="#D07333" stroke-width="4" stroke-miterlimit="10" cx="68.002" cy="95.442" r="16.632"/>
			<circle fill="none" stroke="#D07333" stroke-width="2" stroke-miterlimit="10" cx="68.002" cy="95.442" r="25.741"/>
		</g>
	</g>
	<g>
		<path fill="#D07333" d="M118.065,105.665c-0.768,0-1.535-0.293-2.121-0.879c-1.172-1.171-1.172-3.071,0-4.242
			c2.524-2.524,3.915-5.882,3.915-9.452c0-3.569-1.391-6.927-3.915-9.451c-1.172-1.171-1.172-3.071,0-4.242
			c1.172-1.172,3.07-1.172,4.242,0c7.551,7.551,7.551,19.837,0,27.388C119.6,105.372,118.833,105.665,118.065,105.665z"/>
		<path fill="#D07333" d="M137.913,125.513c-0.768,0-1.535-0.293-2.121-0.879c-1.172-1.172-1.172-3.071,0-4.242
			c7.826-7.826,12.137-18.231,12.137-29.3c0-11.067-4.311-21.474-12.137-29.3c-1.172-1.171-1.172-3.071,0-4.242
			c1.172-1.172,3.07-1.172,4.242,0c8.96,8.959,13.895,20.872,13.895,33.542c0,12.671-4.935,24.583-13.895,33.542
			C139.448,125.22,138.68,125.513,137.913,125.513z"/>
		<path fill="#D07333" d="M157.552,145.153c-0.768,0-1.535-0.293-2.121-0.879c-1.172-1.171-1.172-3.071,0-4.242
			c13.072-13.072,20.271-30.453,20.271-48.939s-7.199-35.866-20.271-48.938c-1.172-1.171-1.172-3.07,0-4.242s3.07-1.172,4.242,0
			c14.206,14.205,22.029,33.092,22.029,53.181c0,20.09-7.823,38.977-22.029,53.182C159.087,144.86,158.32,145.153,157.552,145.153z"
			/>
	</g>
</g>
</svg>
