<?xml version="1.0" encoding="utf-8"?>
<!-- Generator: Adobe Illustrator 17.0.0, SVG Export Plug-In . SVG Version: 6.00 Build 0)  -->
<!DOCTYPE svg PUBLIC "-//W3C//DTD SVG 1.1//EN" "http://www.w3.org/Graphics/SVG/1.1/DTD/svg11.dtd">
<svg version="1.1" id="Layer_1" xmlns="http://www.w3.org/2000/svg" xmlns:xlink="http://www.w3.org/1999/xlink" x="0px" y="0px"
	 width="344.316px" height="203.954px" viewBox="0 0 344.316 203.954" enable-background="new 0 0 344.316 203.954"
	 xml:space="preserve">
<g>
	<path fill="#808285" d="M296.829,91.207c0,4.441-3.671,8.042-8.199,8.042h-66.403c-4.528,0-8.199-3.601-8.199-8.042v-66.45
		c0-4.442,3.671-8.042,8.199-8.042h66.403c4.529,0,8.199,3.6,8.199,8.042V91.207z"/>
	<path fill="#808285" d="M109.596,91.207c0,4.441-3.671,8.042-8.2,8.042H34.994c-4.528,0-8.199-3.601-8.199-8.042v-66.45
		c0-4.442,3.671-8.042,8.199-8.042h66.403c4.529,0,8.2,3.6,8.2,8.042v66.45H109.596z"/>
	<g>
		<path fill="#FFFFFF" stroke="#808285" stroke-width="3" stroke-miterlimit="10" d="M203.213,91.207c0,4.441-3.671,8.042-8.2,8.042
			H128.61c-4.529,0-8.199-3.601-8.199-8.042v-66.45c0-4.442,3.671-8.042,8.199-8.042h66.403c4.529,0,8.2,3.6,8.2,8.042V91.207z"/>
	</g>
	<g>
		<path fill="#FFFFFF" stroke="#808285" stroke-width="3" stroke-miterlimit="10" d="M319.194,180.366
			c0,4.441-3.671,8.042-8.199,8.042h-66.403c-4.528,0-8.199-3.601-8.199-8.042v-66.45c0-4.441,3.671-8.042,8.199-8.042h66.403
			c4.529,0,8.199,3.601,8.199,8.042V180.366z"/>
	</g>
	<g>
		<path fill="#FFFFFF" stroke="#808285" stroke-width="3" stroke-miterlimit="10" d="M131.961,180.366
			c0,4.441-3.671,8.042-8.2,8.042H57.358c-4.528,0-8.199-3.601-8.199-8.042v-66.45c0-4.441,3.671-8.042,8.199-8.042h66.403
			c4.529,0,8.2,3.601,8.2,8.042V180.366z"/>
	</g>
	<g>
		<path fill="#FFFFFF" stroke="#808285" stroke-width="3" stroke-miterlimit="10" d="M225.577,180.366
			c0,4.441-3.671,8.042-8.199,8.042h-66.403c-4.528,0-8.2-3.601-8.2-8.042v-66.45c0-4.441,3.671-8.042,8.2-8.042h66.403
			c4.528,0,8.199,3.601,8.199,8.042V180.366z"/>
	</g>
	<path fill="#FFFFFF" d="M77.772,68.656c1.806,1.244,3.471,2.154,4.996,2.729l-1.144,2.708c-2.114-0.763-4.221-1.966-6.32-3.611
		c-2.18,1.218-4.588,1.826-7.223,1.826c-2.662,0-5.076-0.643-7.243-1.927c-2.166-1.284-3.835-3.09-5.005-5.417
		c-1.171-2.327-1.756-4.948-1.756-7.864c0-2.902,0.588-5.544,1.766-7.925c1.177-2.381,2.852-4.193,5.025-5.438
		c2.174-1.244,4.604-1.866,7.293-1.866c2.716,0,5.163,0.646,7.344,1.937c2.18,1.291,3.842,3.097,4.985,5.417
		c1.144,2.32,1.716,4.939,1.716,7.854c0,2.421-0.368,4.598-1.104,6.531C80.367,65.543,79.257,67.225,77.772,68.656z M69.206,63.68
		c2.247,0.629,4.099,1.565,5.557,2.81c2.288-2.087,3.432-5.224,3.432-9.41c0-2.381-0.405-4.46-1.214-6.239
		c-0.81-1.779-1.993-3.16-3.552-4.144c-1.559-0.982-3.307-1.475-5.246-1.475c-2.902,0-5.311,0.993-7.223,2.979
		c-1.913,1.986-2.869,4.953-2.869,8.898c0,3.825,0.946,6.761,2.839,8.808c1.893,2.046,4.31,3.069,7.253,3.069
		c1.391,0,2.701-0.261,3.933-0.782c-1.218-0.789-2.502-1.351-3.853-1.685L69.206,63.68z"/>
	<path fill="#FFFFFF" d="M247.219,71.806V42.394h21.267v3.471h-17.375v9.008h16.272v3.451h-16.272v10.012h18.057v3.471
		L247.219,71.806L247.219,71.806z"/>
</g>
</svg>
