<?xml version="1.0" encoding="utf-8"?>
<!-- Generator: Adobe Illustrator 17.0.0, SVG Export Plug-In . SVG Version: 6.00 Build 0)  -->
<!DOCTYPE svg PUBLIC "-//W3C//DTD SVG 1.1//EN" "http://www.w3.org/Graphics/SVG/1.1/DTD/svg11.dtd">
<svg version="1.1" id="Layer_1" xmlns="http://www.w3.org/2000/svg" xmlns:xlink="http://www.w3.org/1999/xlink" x="0px" y="0px"
	 width="344.316px" height="203.954px" viewBox="0 0 344.316 203.954" enable-background="new 0 0 344.316 203.954"
	 xml:space="preserve">
<g>
	<path fill="#FFFFFF" stroke="#808285" stroke-width="3" stroke-miterlimit="10" d="M321.851,88.446
		c0,4.441-3.671,8.042-8.199,8.042h-66.403c-4.528,0-8.2-3.601-8.2-8.042v-66.45c0-4.442,3.671-8.042,8.2-8.042h66.403
		c4.528,0,8.199,3.6,8.199,8.042V88.446z"/>
	<path fill="#808285" d="M134.618,88.446c0,4.441-3.671,8.042-8.199,8.042H60.015c-4.528,0-8.199-3.601-8.199-8.042v-66.45
		c0-4.442,3.671-8.042,8.199-8.042h66.403c4.528,0,8.199,3.6,8.199,8.042V88.446z"/>
	<g>
		<path fill="#FFFFFF" stroke="#808285" stroke-width="3" stroke-miterlimit="10" d="M228.234,88.446c0,4.441-3.671,8.042-8.2,8.042
			h-66.403c-4.529,0-8.2-3.601-8.2-8.042v-66.45c0-4.442,3.671-8.042,8.2-8.042h66.403c4.529,0,8.2,3.6,8.2,8.042V88.446z"/>
	</g>
	<g>
		<path fill="#FFFFFF" stroke="#808285" stroke-width="3" stroke-miterlimit="10" d="M283.215,177.605
			c0,4.441-3.671,8.042-8.199,8.042h-66.403c-4.528,0-8.199-3.601-8.199-8.042v-66.45c0-4.441,3.671-8.042,8.199-8.042h66.403
			c4.529,0,8.199,3.601,8.199,8.042V177.605z"/>
	</g>
	<g>
		<path fill="#FFFFFF" stroke="#808285" stroke-width="3" stroke-miterlimit="10" d="M95.982,177.605c0,4.441-3.671,8.042-8.2,8.042
			H21.38c-4.528,0-8.2-3.601-8.2-8.042v-66.45c0-4.441,3.671-8.042,8.2-8.042h66.403c4.528,0,8.2,3.601,8.2,8.042V177.605z"/>
	</g>
	<g>
		<path fill="#808285" d="M189.599,177.605c0,4.441-3.671,8.042-8.2,8.042h-66.403c-4.528,0-8.199-3.601-8.199-8.042v-66.45
			c0-4.441,3.671-8.042,8.199-8.042h66.403c4.529,0,8.2,3.601,8.2,8.042V177.605z"/>
	</g>
	<path fill="#FFFFFF" d="M82.409,71.332V41.92H95.45c2.621,0,4.614,0.264,5.979,0.792c1.364,0.528,2.454,1.462,3.271,2.799
		c0.815,1.338,1.224,2.815,1.224,4.434c0,2.087-0.676,3.846-2.026,5.277c-1.352,1.431-3.438,2.341-6.26,2.729
		c1.03,0.495,1.812,0.982,2.348,1.464c1.137,1.044,2.213,2.348,3.229,3.913l5.116,8.005h-4.896l-3.892-6.119
		c-1.137-1.766-2.073-3.116-2.809-4.053c-0.736-0.937-1.395-1.592-1.977-1.967c-0.582-0.374-1.174-0.635-1.775-0.782
		c-0.441-0.093-1.164-0.141-2.167-0.141h-4.515v13.062H82.409z M86.301,54.9h8.366c1.779,0,3.171-0.184,4.174-0.552
		c1.003-0.368,1.766-0.956,2.287-1.766c0.522-0.809,0.782-1.688,0.782-2.639c0-1.391-0.505-2.534-1.515-3.431
		c-1.01-0.896-2.605-1.344-4.785-1.344h-9.31V54.9z"/>
	<path fill="#FFFFFF" d="M142.094,157.118v-29.412h19.843v3.471h-15.95v9.108h13.804v3.471h-13.804v13.362H142.094z"/>
</g>
</svg>
