<?xml version="1.0" encoding="utf-8"?>
<!-- Generator: Adobe Illustrator 17.0.0, SVG Export Plug-In . SVG Version: 6.00 Build 0)  -->
<!DOCTYPE svg PUBLIC "-//W3C//DTD SVG 1.1//EN" "http://www.w3.org/Graphics/SVG/1.1/DTD/svg11.dtd">
<svg version="1.1" id="Layer_1" xmlns="http://www.w3.org/2000/svg" xmlns:xlink="http://www.w3.org/1999/xlink" x="0px" y="0px"
	 width="344.316px" height="203.954px" viewBox="0 0 344.316 203.954" enable-background="new 0 0 344.316 203.954"
	 xml:space="preserve">
<g>
	<path fill="#FFFFFF" stroke="#808285" stroke-width="3" stroke-miterlimit="10" d="M238.234,23.787
		c0-4.206,3.476-7.616,7.764-7.616h62.881c4.288,0,7.764,3.409,7.764,7.616v62.924c0,4.206-3.476,7.615-7.764,7.615h-62.881
		c-4.288,0-7.764-3.409-7.764-7.615V23.787z"/>
	<path fill="#FFFFFF" stroke="#808285" stroke-width="3" stroke-miterlimit="10" d="M213.084,110.784c0-4.495,3.715-8.14,8.299-8.14
		h67.209c4.583,0,8.299,3.644,8.299,8.14v67.255c0,4.495-3.715,8.14-8.299,8.14h-67.209c-4.583,0-8.299-3.644-8.299-8.14V110.784z"
		/>
	<path fill="#FFFFFF" stroke="#808285" stroke-width="3" stroke-miterlimit="10" d="M25.478,110.784c0-4.495,3.715-8.14,8.299-8.14
		h67.208c4.583,0,8.299,3.644,8.299,8.14v67.255c0,4.495-3.715,8.14-8.299,8.14H33.777c-4.583,0-8.299-3.644-8.299-8.14V110.784z"/>
	<path fill="#FFFFFF" stroke="#808285" stroke-width="3" stroke-miterlimit="10" d="M119.281,110.784c0-4.495,3.716-8.14,8.299-8.14
		h67.209c4.583,0,8.299,3.644,8.299,8.14v67.255c0,4.495-3.715,8.14-8.299,8.14H127.58c-4.583,0-8.299-3.644-8.299-8.14V110.784z"/>
	<g>
		<path fill="#808285" d="M27.309,23.787c0-4.206,3.476-7.616,7.764-7.616h187.003c4.288,0,7.764,3.409,7.764,7.616v62.924
			c0,4.206-3.476,7.615-7.764,7.615H35.074c-4.288,0-7.764-3.409-7.764-7.615V23.787z"/>
		<g>
			<path fill="#FFFFFF" d="M70.562,60.504l3.672-0.32c0.174,1.472,0.578,2.678,1.214,3.621c0.635,0.943,1.621,1.705,2.959,2.287
				c1.337,0.582,2.842,0.873,4.515,0.873c1.484,0,2.795-0.221,3.932-0.662c1.137-0.441,1.983-1.047,2.538-1.815
				c0.555-0.77,0.833-1.608,0.833-2.519c0-0.923-0.268-1.729-0.803-2.417c-0.535-0.689-1.418-1.268-2.648-1.736
				c-0.789-0.307-2.535-0.785-5.236-1.434c-2.702-0.649-4.595-1.261-5.678-1.836c-1.404-0.735-2.451-1.648-3.14-2.739
				c-0.689-1.09-1.033-2.309-1.033-3.661c0-1.484,0.421-2.872,1.264-4.163c0.843-1.291,2.073-2.271,3.691-2.939
				c1.618-0.669,3.417-1.003,5.398-1.003c2.18,0,4.102,0.351,5.767,1.054c1.665,0.702,2.946,1.735,3.843,3.1
				c0.896,1.364,1.377,2.909,1.444,4.634l-3.732,0.281c-0.2-1.858-0.879-3.264-2.036-4.213c-1.157-0.95-2.866-1.425-5.126-1.425
				c-2.354,0-4.069,0.432-5.146,1.294c-1.076,0.863-1.615,1.903-1.615,3.12c0,1.057,0.382,1.926,1.144,2.608
				c0.749,0.682,2.705,1.381,5.869,2.097c3.163,0.715,5.333,1.341,6.511,1.876c1.712,0.789,2.976,1.789,3.791,2.999
				c0.816,1.211,1.225,2.606,1.225,4.184c0,1.564-0.448,3.039-1.345,4.424c-0.896,1.384-2.184,2.461-3.862,3.229
				c-1.679,0.77-3.567,1.154-5.667,1.154c-2.662,0-4.892-0.389-6.691-1.164c-1.799-0.775-3.21-1.942-4.233-3.501
				C71.154,64.234,70.616,62.471,70.562,60.504z"/>
			<path fill="#FFFFFF" d="M99.413,69.955V40.542h3.893V52.62h15.288V40.542h3.893v29.412h-3.893V56.091h-15.288v13.863H99.413z"/>
			<path fill="#FFFFFF" d="M129.629,69.955V40.542h3.893v29.412H129.629z"/>
			<path fill="#FFFFFF" d="M140.583,69.955V40.542h19.843v3.471h-15.95v9.108h13.804v3.471h-13.804v13.362H140.583z"/>
			<path fill="#FFFFFF" d="M172.965,69.955V44.013h-9.69v-3.471h23.313v3.471h-9.73v25.941H172.965z"/>
		</g>
	</g>
</g>
</svg>
