<?xml version="1.0" encoding="utf-8"?>
<!-- Generator: Adobe Illustrator 17.0.0, SVG Export Plug-In . SVG Version: 6.00 Build 0)  -->
<!DOCTYPE svg PUBLIC "-//W3C//DTD SVG 1.1//EN" "http://www.w3.org/Graphics/SVG/1.1/DTD/svg11.dtd">
<svg version="1.1" id="Layer_1" xmlns="http://www.w3.org/2000/svg" xmlns:xlink="http://www.w3.org/1999/xlink" x="0px" y="0px"
	 width="282px" height="246px" viewBox="0 0 282 246" enable-background="new 0 0 282 246" xml:space="preserve">
<g>
	<path fill="#808285" d="M244.361,75.563H36.599c-4.654,0-8.426,3.749-8.426,8.374v99.059c0,4.625,3.773,8.374,8.426,8.374h64.49
		l0.035-0.075l8.61-0.013l-0.001-0.001c3.555-0.006,6.535-2.432,7.4-5.717c0.031-0.013,0.058-0.025,0.058-0.025l3.954-21.095
		l0.095,0.029c1.374-9.283,9.354-16.412,19.009-16.455c9.655,0.043,17.635,7.172,19.009,16.455l0.095-0.029l3.954,21.095
		c0,0,0.027,0.012,0.058,0.025c0.866,3.285,3.845,5.711,7.4,5.717l-0.001,0.001l15.111,0.022l0.055,0.065h58.428
		c4.654,0,8.426-3.749,8.426-8.374V83.937C252.787,79.312,249.014,75.563,244.361,75.563z M94.073,157.787
		c-11.948,0-21.633-9.685-21.633-21.633c0-11.948,9.685-21.633,21.633-21.633s21.633,9.685,21.633,21.633
		C115.706,148.101,106.021,157.787,94.073,157.787z M186.886,157.787c-11.948,0-21.633-9.685-21.633-21.633
		c0-11.948,9.685-21.633,21.633-21.633c11.948,0,21.633,9.685,21.633,21.633C208.519,148.101,198.834,157.787,186.886,157.787z"/>
	<g>
		
			<line fill="none" stroke="#D07333" stroke-width="6" stroke-linecap="round" stroke-miterlimit="10" x1="224.455" y1="20.127" x2="224.455" y2="47.239"/>
		<polyline fill="none" stroke="#D07333" stroke-width="6" stroke-linecap="round" stroke-miterlimit="10" points="212.209,36.559 
			224.045,51.897 235.906,37.02 		"/>
	</g>
	<path fill="#808285" d="M236.146,74.507c0,2.782-2.255,5.038-5.038,5.038h-13.014c-2.782,0-5.038-2.255-5.038-5.038l0,0
		c0-2.782,2.255-5.038,5.038-5.038h13.014C233.89,69.469,236.146,71.725,236.146,74.507L236.146,74.507z"/>
</g>
</svg>
