<?xml version="1.0" encoding="utf-8"?>
<!-- Generator: Adobe Illustrator 17.0.0, SVG Export Plug-In . SVG Version: 6.00 Build 0)  -->
<!DOCTYPE svg PUBLIC "-//W3C//DTD SVG 1.1//EN" "http://www.w3.org/Graphics/SVG/1.1/DTD/svg11.dtd">
<svg version="1.1" id="Layer_1" xmlns="http://www.w3.org/2000/svg" xmlns:xlink="http://www.w3.org/1999/xlink" x="0px" y="0px"
	 width="282px" height="246px" viewBox="0 0 282 246" enable-background="new 0 0 282 246" xml:space="preserve">
<g>
	<g>
		<path fill="#FFFFFF" stroke="#808285" stroke-width="4" stroke-miterlimit="10" d="M172.431,15.791
			c6.12,0,11.081,4.913,11.081,10.974v183.977c0,6.061-4.961,10.974-11.081,10.974H98.926c-6.12,0-11.081-4.913-11.081-10.974
			V26.765c0-6.061,4.961-10.974,11.081-10.974H172.431z"/>
		<path fill="#58595B" d="M177.436,42.571c1.01,0,1.829,0.819,1.829,1.829v147.97c0,1.01-0.819,1.829-1.829,1.829H94.845
			c-1.01,0-1.829-0.819-1.829-1.829V44.4c0-1.01,0.819-1.829,1.829-1.829H177.436z"/>
		<circle fill="#FFFFFF" stroke="#808285" stroke-width="4" stroke-miterlimit="10" cx="136.787" cy="207.311" r="8.865"/>
		<path fill="#808285" d="M143.744,30.159c0.744,0,1.348,0.603,1.348,1.348l0,0c0,0.744-0.603,1.348-1.348,1.348h-14.376
			c-0.744,0-1.348-0.603-1.348-1.348l0,0c0-0.744,0.603-1.348,1.348-1.348H143.744z"/>
		<circle fill="#808285" cx="136.287" cy="23.51" r="2.156"/>
		<circle fill="#808285" cx="122.45" cy="31.417" r="1.797"/>
	</g>
	<g>
		<circle fill="#D07333" cx="147.737" cy="103.449" r="9.828"/>
		<circle fill="none" stroke="#D07333" stroke-width="4" stroke-miterlimit="10" cx="147.737" cy="103.449" r="16.632"/>
		<circle fill="none" stroke="#D07333" stroke-width="2" stroke-miterlimit="10" cx="147.737" cy="103.449" r="25.741"/>
	</g>
</g>
</svg>
