<?xml version="1.0" encoding="utf-8"?>
<!-- Generator: Adobe Illustrator 17.0.0, SVG Export Plug-In . SVG Version: 6.00 Build 0)  -->
<!DOCTYPE svg PUBLIC "-//W3C//DTD SVG 1.1//EN" "http://www.w3.org/Graphics/SVG/1.1/DTD/svg11.dtd">
<svg version="1.1" id="Layer_1" xmlns="http://www.w3.org/2000/svg" xmlns:xlink="http://www.w3.org/1999/xlink" x="0px" y="0px"
	 width="282px" height="246px" viewBox="0 0 282 246" enable-background="new 0 0 282 246" xml:space="preserve">
<path fill="#808285" d="M238.903,161.301c0,4.436-3.618,8.032-8.082,8.032H31.556c-4.463,0-8.082-3.596-8.082-8.032V22.875
	c0-4.436,3.618-8.032,8.082-8.032h199.266c4.463,0,8.082,3.596,8.082,8.032V161.301z"/>
<path fill="#808285" d="M166.964,196.901c0,0-6.52-6.279-7.613-7.279c-1.464-1.339-1.705-4.748-2.054-8.066
	c-0.349-3.318-1.048-12.05-1.048-12.05l-0.496-1.636h-23.079h-1.267h-25.17l-0.496,1.636c0,0-0.699,8.732-1.048,12.05
	c-0.349,3.318-0.59,6.727-2.054,8.066c-1.094,1-7.613,7.279-7.613,7.279s-1.757,1.422,0.753,1.841
	c2.305,0.384,31.497,0.204,36.242,0.172c4.458,0.032,31.885,0.212,34.19-0.172C168.721,198.324,166.964,196.901,166.964,196.901z"/>
<rect x="34.165" y="25.267" fill="#FFFFFF" width="194.582" height="109.586"/>
<path fill="#D07333" d="M190.092,89.232l-57.406-25.965l0.012,0.008c-0.007-0.001-0.014,0-0.021,0
	c-0.497-0.262-1.124-0.188-1.54,0.231c-0.453,0.456-0.5,1.16-0.147,1.67l26.302,57.091c0.094,0.521,0.34,1.02,0.744,1.422
	c1.049,1.042,2.744,1.036,3.786-0.014c0.427-0.43,0.668-0.969,0.743-1.526l0.08-0.015l3.846-16.223L182.468,122
	c0.02,0.02,0.036,0.042,0.056,0.062c0.015,0.015,0.032,0.027,0.047,0.042l0.31,0.312l0.011-0.025
	c2.11,1.744,5.239,1.624,7.205-0.356s2.064-5.111,0.305-7.208l0.024-0.011l-0.314-0.307c-0.015-0.015-0.027-0.031-0.042-0.046
	c-0.02-0.02-0.042-0.036-0.062-0.056l-16.204-15.859l16.195-3.962l0.015-0.08c0.557-0.079,1.094-0.324,1.52-0.754
	c1.042-1.049,1.036-2.744-0.014-3.786C191.115,89.564,190.614,89.322,190.092,89.232z"/>
<path fill="#808285" d="M208.201,217.315l-11.58-11.127l-64.729,0.023l-64.729-0.023l-11.58,11.127c0,0-1.129,1.088,0.858,1.171
	c1.759,0.074,8.938,0,8.938,0h53.521h25.987h53.521c0,0,7.179,0.074,8.938,0C209.33,218.403,208.201,217.315,208.201,217.315z"/>
<path fill="#808285" d="M208.096,221.172c-0.816,0.146-2.51,0.146-2.51,0.146H83.003h-1.948H58.448c0,0-1.694,0-2.51-0.146
	c-0.499-0.09-0.637-0.218-0.669-0.304v1.183l0.021,0.007v0.228c0.106,0.172,0.245,0.429,0.565,0.591
	c0.416,0.212,0.697,0.352,1.494,0.429h23.706h1.948h123.683c0.797-0.077,1.078-0.217,1.494-0.429c0.32-0.163,0.459-0.42,0.565-0.591
	v-0.228l0.021-0.007v-1.183C208.733,220.954,208.596,221.083,208.096,221.172z"/>
<path fill="#808285" d="M231.391,206.274c4.624,0.468,9.384,2.303,13.404,5.166c4.505,3.209,9.096,5.614,11.98,6.278
	c4.468,1.027,11.104-0.242,13.303-0.721c0.008-0.006,0.018-0.011,0.026-0.017c1.785-1.339,2.343-4.629-4.797-9.091
	c-7.139-4.462-21.306-5.243-29.84-4.295c-7.972,0.886-9.956,2.842-10.183,3.096C226.583,206.383,228.815,206.013,231.391,206.274z"
	/>
<path fill="#808285" d="M256.55,220.706c-3.05-0.702-7.662-3.109-12.338-6.439c-3.879-2.764-8.468-4.534-12.921-4.985
	c-2.804-0.282-5.218,0.236-6.283,0.525c0.839,0.678,3.065,2.362,5.608,3.326c3.235,1.227,18.969,6.391,21.641,6.972
	c2.848,0.619,3.824,0.675,4.828,0.703C256.906,220.775,256.723,220.746,256.55,220.706z"/>
<polyline fill="none" points="199.118,80.548 214.577,68.872 199.824,56.858 "/>
<polyline fill="none" points="57.256,56.858 41.796,68.533 56.549,80.548 "/>
</svg>
