<?xml version="1.0" encoding="utf-8"?>
<!-- Generator: Adobe Illustrator 17.0.0, SVG Export Plug-In . SVG Version: 6.00 Build 0)  -->
<!DOCTYPE svg PUBLIC "-//W3C//DTD SVG 1.1//EN" "http://www.w3.org/Graphics/SVG/1.1/DTD/svg11.dtd">
<svg version="1.1" id="Layer_1" xmlns="http://www.w3.org/2000/svg" xmlns:xlink="http://www.w3.org/1999/xlink" x="0px" y="0px"
	 width="352.593px" height="283.592px" viewBox="0 0 352.593 283.592" enable-background="new 0 0 352.593 283.592"
	 xml:space="preserve">
<g>
	<g>
		<path fill="#FFFFFF" stroke="#808285" stroke-width="4" stroke-miterlimit="10" d="M252.759,96.888
			c0,4.607-3.699,8.343-8.262,8.343H105.99c-4.563,0-8.262-3.735-8.262-8.343V41.55c0-4.607,3.699-8.343,8.262-8.343h138.507
			c4.563,0,8.262,3.735,8.262,8.343V96.888z"/>
		<path fill="#58595B" d="M232.598,100.656c0,0.76-0.617,1.377-1.377,1.377H119.822c-0.76,0-1.377-0.617-1.377-1.377V38.477
			c0-0.76,0.617-1.377,1.377-1.377h111.399c0.76,0,1.377,0.617,1.377,1.377V100.656z"/>
		<circle fill="#FFFFFF" stroke="#808285" stroke-width="4" stroke-miterlimit="10" cx="108.573" cy="70.053" r="6.674"/>
		<path fill="#808285" d="M241.942,75.291c0,0.56-0.454,1.015-1.015,1.015l0,0c-0.56,0-1.015-0.454-1.015-1.015V64.468
			c0-0.56,0.454-1.015,1.015-1.015l0,0c0.56,0,1.015,0.454,1.015,1.015V75.291z"/>
		<circle fill="#808285" cx="246.948" cy="69.677" r="1.623"/>
		<circle fill="#808285" cx="240.995" cy="59.259" r="1.353"/>
	</g>
	<path fill="#808285" d="M257.725,143.61H92.761c-3.695,0-6.69,2.977-6.69,6.649v78.653c0,3.672,2.995,6.649,6.69,6.649h51.205
		l0.028-0.059l6.837-0.01l0-0.001c2.823-0.005,5.189-1.931,5.876-4.539c0.025-0.011,0.046-0.02,0.046-0.02l3.14-16.75l0.075,0.023
		c1.091-7.371,7.427-13.031,15.093-13.065c7.666,0.034,14.002,5.694,15.093,13.065l0.075-0.023l3.14,16.75
		c0,0,0.021,0.009,0.046,0.02c0.687,2.608,3.053,4.534,5.876,4.539l0,0.001l11.998,0.018l0.044,0.052h46.392
		c3.695,0,6.69-2.977,6.69-6.649v-78.653C264.416,146.587,261.42,143.61,257.725,143.61z M138.397,208.896
		c-9.486,0-17.177-7.69-17.177-17.177c0-9.486,7.69-17.177,17.177-17.177s17.177,7.69,17.177,17.177
		C155.573,201.206,147.883,208.896,138.397,208.896z M212.09,208.896c-9.486,0-17.177-7.69-17.177-17.177
		c0-9.486,7.69-17.177,17.177-17.177c9.486,0,17.177,7.69,17.177,17.177C229.267,201.206,221.577,208.896,212.09,208.896z"/>
	<g>
		<path fill="none" stroke="#D07333" stroke-width="6" stroke-linecap="round" stroke-miterlimit="10" d="M273.623,175.12
			c36.263,7.517,59.706,19.46,59.706,32.908c0,8.531-9.433,16.455-25.588,23.029"/>
		<polyline fill="none" stroke="#D07333" stroke-width="6" stroke-linecap="round" stroke-miterlimit="10" points="312.911,217.68 
			306.492,231.659 321.327,234.512 		"/>
	</g>
	<g>
		<path fill="none" stroke="#D07333" stroke-width="6" stroke-linecap="round" stroke-miterlimit="10" d="M76.324,175.12
			c-36.263,7.517-59.706,19.46-59.706,32.908c0,8.531,9.433,16.455,25.588,23.029"/>
		<polyline fill="none" stroke="#D07333" stroke-width="6" stroke-linecap="round" stroke-miterlimit="10" points="37.036,217.68 
			43.455,231.659 28.62,234.512 		"/>
	</g>
	<g>
		
			<line fill="none" stroke="#808285" stroke-width="6" stroke-linecap="round" stroke-miterlimit="10" x1="173.727" y1="108.978" x2="173.727" y2="130.505"/>
		<polyline fill="none" stroke="#808285" stroke-width="6" stroke-linecap="round" stroke-miterlimit="10" points="164.004,122.026 
			173.401,134.204 182.819,122.392 		"/>
	</g>
</g>
<path fill="#808285" d="M251.203,142.772c0,2.209-1.791,4-4,4h-10.333c-2.209,0-4-1.791-4-4l0,0c0-2.209,1.791-4,4-4h10.333
	C249.412,138.772,251.203,140.563,251.203,142.772L251.203,142.772z"/>
</svg>
