<?xml version="1.0" encoding="utf-8"?>
<!-- Generator: Adobe Illustrator 17.0.0, SVG Export Plug-In . SVG Version: 6.00 Build 0)  -->
<!DOCTYPE svg PUBLIC "-//W3C//DTD SVG 1.1//EN" "http://www.w3.org/Graphics/SVG/1.1/DTD/svg11.dtd">
<svg version="1.1" id="Layer_1" xmlns="http://www.w3.org/2000/svg" xmlns:xlink="http://www.w3.org/1999/xlink" x="0px" y="0px"
	 width="503px" height="215px" viewBox="0 0 503 215" enable-background="new 0 0 503 215" xml:space="preserve">
<g>
	<g>
		<path fill="#FFFFFF" stroke="#808285" stroke-width="4" stroke-miterlimit="10" d="M301.993,131.024
			c0,6.12-4.913,11.081-10.974,11.081H107.042c-6.061,0-10.974-4.961-10.974-11.081V57.519c0-6.12,4.913-11.081,10.974-11.081
			h183.977c6.061,0,10.974,4.961,10.974,11.081V131.024z"/>
		<path fill="#58595B" d="M275.213,136.029c0,1.01-0.819,1.829-1.829,1.829h-147.97c-1.01,0-1.829-0.819-1.829-1.829V53.438
			c0-1.01,0.819-1.829,1.829-1.829h147.97c1.01,0,1.829,0.819,1.829,1.829V136.029z"/>
		<circle fill="#FFFFFF" stroke="#808285" stroke-width="4" stroke-miterlimit="10" cx="110.473" cy="95.38" r="8.865"/>
		<path fill="#808285" d="M287.625,102.337c0,0.744-0.603,1.348-1.348,1.348l0,0c-0.744,0-1.348-0.603-1.348-1.348V87.961
			c0-0.744,0.603-1.348,1.348-1.348l0,0c0.744,0,1.348,0.603,1.348,1.348V102.337z"/>
		<circle fill="#808285" cx="294.274" cy="94.88" r="2.156"/>
		<circle fill="#808285" cx="286.367" cy="81.043" r="1.797"/>
	</g>
	<path fill="#808285" d="M417.529,124.913c-7.773-15.191-15.283-32.607-18.803-40.474c-5.112-11.427-6.315-19.846-13.531-23.454
		c-3.223-1.612-7.045-3.702-10.449-5.658c-0.86-0.436-3.063-1.611-6.148-3.67c-1.269-0.799-2.208-1.433-2.647-1.798
		c-0.051-0.043-0.108-0.098-0.169-0.162c-1.249-0.905-2.59-1.923-4.005-3.065c-3.683-2.969-6.394-5.358-8.232-7.054
		c-11.206-8.211-26.929-20.359-30.894-21.292c-5.112-1.203-21.65,8.42-21.65,8.42s-1.203-0.601-12.028-1.203
		c-0.372-0.021-0.746-0.041-1.12-0.061c-0.054,0.04-0.082,0.061-0.082,0.061s-13.832,1.203-21.35,2.105
		c-7.517,0.902-25.259,5.112-21.951,8.72c3.308,3.608,5.413,9.322,20.447,9.622c15.035,0.301,17.44-1.503,17.44-1.503
		s19.846,7.818,27.063,12.629c7.217,4.811,33.979,29.168,35.182,42.098s-11.427,37.888-25.259,40.294
		c-13.832,2.406-36.685,2.706-47.51,3.909s-30.671,9.622-27.364,19.846c3.308,10.224,11.727,1.804,36.384,6.014
		c24.657,4.21,39.091-1.503,53.524,6.615c7.052,3.967,15.182,8.005,23.896,12.01c0.102-0.105,0.208-0.215,0.312-0.322
		c6.093,3.101,12.99,4.851,20.295,4.851c24.745,0,44.804-20.059,44.804-44.804C423.684,139.312,421.439,131.564,417.529,124.913z"/>
	<g>
		<path fill="none" stroke="#D07333" stroke-width="6" stroke-linecap="round" stroke-miterlimit="10" d="M413.325,83.834
			c43.876,9.096,72.24,23.545,72.24,39.816c0,10.321-11.414,19.91-30.96,27.864"/>
		<polyline fill="none" stroke="#D07333" stroke-width="6" stroke-linecap="round" stroke-miterlimit="10" points="460.86,135.329 
			453.093,152.243 471.043,155.695 		"/>
	</g>
	<g>
		<path fill="none" stroke="#D07333" stroke-width="6" stroke-linecap="round" stroke-miterlimit="10" d="M86.617,83.834
			c-43.876,9.096-72.24,23.545-72.24,39.816c0,10.321,11.414,19.91,30.96,27.864"/>
		<polyline fill="none" stroke="#D07333" stroke-width="6" stroke-linecap="round" stroke-miterlimit="10" points="39.082,135.329 
			46.848,152.243 28.899,155.695 		"/>
	</g>
</g>
</svg>
